# OBJ generated by ONSHAPE BY PTC INC, 1.198 Units = meters
mtllib pallet1000x1200.mtl
g Part 1
v 0.35 0.6 0.122 
v 0.35 0.5 0.122 
v 0.4 0.5 0.122 
v 0.4 0.6 0.122 
v 0.35 0.6 0.144 
v 0.35 0.05 0.122 
v 0.35 -0.6 0.144 
v 0.35 -0.05 0.122 
v 0.35 -0.5 0.122 
v 0.35 -0.6 0.122 
v 0.4 -0.6 0.122 
v 0.4 -0.5 0.122 
v 0.25 0.6 0.144 
v 0.25 -0.6 0.144 
v 0.25 0.05 0.122 
v 0.25 0.5 0.122 
v 0.4 -0.05 0.122 
v 0.4 0.05 0.122 
v 0.25 -0.5 0.122 
v 0.25 -0.05 0.122 
v 0.25 0.6 0.122 
v 0.25 -0.6 0.122 
v 0.2 0.6 0.122 
v 0.2 0.5 0.122 
v 0.2 -0.5 0.122 
v 0.2 -0.6 0.122 
v 0.2 0.05 0.122 
v 0.2 -0.05 0.122 
v 0.2 0.6 0.144 
v 0.2 -0.6 0.144 
v 0.1 0.05 0.122 
v 0.1 0.5 0.122 
v 0.1 -0.5 0.122 
v 0.1 -0.05 0.122 
v 0.1 0.6 0.144 
v 0.1 -0.6 0.144 
v 0.1 0.6 0.122 
v 0.1 -0.6 0.122 
v 0.05 0.6 0.122 
v 0.05 0.5 0.122 
v 0.05 -0.5 0.122 
v 0.05 -0.6 0.122 
v 0.05 0.05 0.122 
v 0.05 -0.05 0.122 
v 0.05 0.6 0.144 
v 0.05 -0.6 0.144 
v -0.05 0.05 0.122 
v -0.05 0.5 0.122 
v -0.05 -0.5 0.122 
v -0.05 -0.05 0.122 
v -0.05 0.6 0.144 
v -0.05 -0.6 0.144 
v -0.05 0.6 0.122 
v -0.05 -0.6 0.122 
v -0.1 0.6 0.122 
v -0.1 0.5 0.122 
v -0.1 -0.5 0.122 
v -0.1 -0.6 0.122 
v -0.1 0.05 0.122 
v -0.1 -0.05 0.122 
v -0.1 0.6 0.144 
v -0.1 -0.6 0.144 
v -0.2 0.05 0.122 
v -0.2 0.5 0.122 
v -0.2 -0.5 0.122 
v -0.2 -0.05 0.122 
v -0.2 0.6 0.144 
v -0.2 -0.6 0.144 
v -0.2 0.6 0.122 
v -0.2 -0.6 0.122 
v -0.25 0.6 0.122 
v -0.25 0.5 0.122 
v -0.25 -0.5 0.122 
v -0.25 -0.6 0.122 
v -0.25 0.05 0.122 
v -0.25 -0.05 0.122 
v -0.25 0.6 0.144 
v -0.25 -0.6 0.144 
v -0.35 0.05 0.122 
v -0.35 0.5 0.122 
v -0.35 -0.5 0.122 
v -0.35 -0.05 0.122 
v -0.35 0.6 0.144 
v -0.35 -0.6 0.144 
v -0.35 0.6 0.122 
v -0.35 -0.6 0.122 
v -0.4 0.6 0.122 
v -0.4 0.5 0.122 
v -0.4 -0.5 0.122 
v -0.4 -0.6 0.122 
v -0.4 0.05 0.122 
v -0.4 -0.05 0.122 
v -0.4 0.6 0.144 
v -0.4 -0.6 0.144 
v -0.5 0.05 0.122 
v -0.5 0.5 0.122 
v -0.5 -0.5 0.122 
v -0.5 -0.05 0.122 
v -0.5 0.6 0.144 
v -0.5 -0.6 0.144 
v -0.5 -0.6 0 
v -0.5 -0.5 0.022 
v -0.5 -0.05 0.022 
v -0.5 0.6 0 
v -0.5 0.5 0.022 
v -0.5 0.05 0.022 
v -0.4 -0.5 0.022 
v -0.4 -0.05 0.022 
v -0.4 0.05 0.022 
v -0.4 0.5 0.022 
v -0.4 0.6 0 
v -0.4 -0.6 0 
v -0.4 -0.6 0.1 
v -0.4 -0.05 0.1 
v -0.4 0.05 0.1 
v -0.4 0.6 0.1 
v -0.4 0.5 0.1 
v -0.4 -0.5 0.1 
v -0.05 0.6 0.1 
v -0.05 0.5 0.1 
v -0.05 -0.6 0.1 
v -0.05 -0.5 0.1 
v -0.05 -0.05 0.1 
v -0.05 0.05 0.1 
v -0.05 0.6 0 
v -0.05 0.5 0.022 
v -0.05 -0.05 0.022 
v -0.05 0.05 0.022 
v -0.05 -0.6 0 
v -0.05 -0.5 0.022 
v 0.05 -0.5 0.022 
v 0.05 -0.05 0.022 
v 0.05 0.05 0.022 
v 0.05 0.5 0.022 
v 0.05 0.6 0 
v 0.05 -0.6 0 
v 0.05 -0.6 0.1 
v 0.05 -0.05 0.1 
v 0.05 0.05 0.1 
v 0.05 0.6 0.1 
v 0.05 0.5 0.1 
v 0.05 -0.5 0.1 
v 0.4 0.6 0.1 
v 0.4 0.5 0.1 
v 0.4 -0.6 0.1 
v 0.4 -0.5 0.1 
v 0.4 -0.05 0.1 
v 0.4 0.05 0.1 
v 0.5 0.6 0 
v 0.4 0.6 0 
v 0.5 0.6 0.144 
v 0.4 0.6 0.144 
v 0.5 -0.6 0.144 
v 0.4 -0.6 0.144 
v 0.5 -0.6 0 
v 0.4 -0.6 0 
v 0.5 0.5 0.022 
v 0.5 0.5 0.122 
v 0.4 0.5 0.022 
v 0.5 0.05 0.122 
v 0.5 0.05 0.022 
v 0.4 0.05 0.022 
v 0.4 -0.05 0.022 
v 0.4 -0.5 0.022 
v 0.5 -0.05 0.022 
v 0.5 -0.5 0.022 
v 0.5 -0.05 0.122 
v 0.5 -0.5 0.122 
vn 0 0 1 
vn 1 0 0 
vn 0 0 -1 
vn 0 0 1 
vn -1 0 0 
vn 1 0 0 
vn 0 0 -1 
vn 0 0 1 
vn -1 0 0 
vn 1 0 0 
vn 0 0 -1 
vn 0 0 1 
vn -1 0 0 
vn 1 0 0 
vn 0 0 -1 
vn 0 0 1 
vn -1 0 0 
vn 1 0 0 
vn 0 0 -1 
vn 0 0 1 
vn -1 0 0 
vn 1 0 0 
vn 0 0 -1 
vn 0 0 1 
vn -1 0 0 
vn 0 0 -1 
vn 1 0 0 
vn -1 -3.70074e-16 0 
vn 0 0 1 
vn 0 0 -1 
vn 1 0 0 
vn 0 1 0 
vn 0 -1 0 
vn 0 0 -1 
vn 0 0 1 
vn 1.11022e-15 -1 0 
vn 0 1 0 
vn 0 0 1 
vn 0 0 -1 
vn -1 0 0 
vn 0 0 1 
vn -4.16334e-16 -1 0 
vn 1.11022e-15 1 0 
vn 1 0 0 
vn -1 0 0 
vn 0 0 -1 
usemtl 0.901961_0.807843_0.505882_0.000000_0.000000
o mesh0
f 1//1 2//1 3//1 
f 3//1 4//1 1//1 
o mesh1
f 5//2 6//2 2//2 
f 5//2 7//2 8//2 
f 8//2 6//2 5//2 
f 7//2 9//2 8//2 
f 7//2 10//2 9//2 
f 2//2 1//2 5//2 
o mesh2
f 9//1 10//1 11//1 
f 11//1 12//1 9//1 
o mesh3
f 7//1 5//1 13//1 
f 13//1 14//1 7//1 
o mesh4
f 15//3 16//3 2//3 
f 2//3 6//3 15//3 
o mesh5
f 6//4 8//4 17//4 
f 17//4 18//4 6//4 
o mesh6
f 19//3 20//3 8//3 
f 8//3 9//3 19//3 
o mesh7
f 14//5 20//5 19//5 
f 14//5 13//5 15//5 
f 15//5 20//5 14//5 
f 13//5 16//5 15//5 
f 13//5 21//5 16//5 
f 19//5 22//5 14//5 
o mesh8
f 23//4 24//4 16//4 
f 16//4 21//4 23//4 
o mesh9
f 25//4 26//4 22//4 
f 22//4 19//4 25//4 
o mesh10
f 27//4 28//4 20//4 
f 20//4 15//4 27//4 
o mesh11
f 29//6 27//6 24//6 
f 29//6 30//6 28//6 
f 28//6 27//6 29//6 
f 30//6 25//6 28//6 
f 30//6 26//6 25//6 
f 24//6 23//6 29//6 
o mesh12
f 31//7 32//7 24//7 
f 24//7 27//7 31//7 
o mesh13
f 33//7 34//7 28//7 
f 28//7 25//7 33//7 
o mesh14
f 30//8 29//8 35//8 
f 35//8 36//8 30//8 
o mesh15
f 36//9 34//9 33//9 
f 36//9 35//9 31//9 
f 31//9 34//9 36//9 
f 35//9 32//9 31//9 
f 35//9 37//9 32//9 
f 33//9 38//9 36//9 
o mesh16
f 39//8 40//8 32//8 
f 32//8 37//8 39//8 
o mesh17
f 41//8 42//8 38//8 
f 38//8 33//8 41//8 
o mesh18
f 43//8 44//8 34//8 
f 34//8 31//8 43//8 
o mesh19
f 45//10 43//10 40//10 
f 45//10 46//10 44//10 
f 44//10 43//10 45//10 
f 46//10 41//10 44//10 
f 46//10 42//10 41//10 
f 40//10 39//10 45//10 
o mesh20
f 47//11 48//11 40//11 
f 40//11 43//11 47//11 
o mesh21
f 49//11 50//11 44//11 
f 44//11 41//11 49//11 
o mesh22
f 46//12 45//12 51//12 
f 51//12 52//12 46//12 
o mesh23
f 52//13 50//13 49//13 
f 52//13 51//13 47//13 
f 47//13 50//13 52//13 
f 51//13 48//13 47//13 
f 51//13 53//13 48//13 
f 49//13 54//13 52//13 
o mesh24
f 55//12 56//12 48//12 
f 48//12 53//12 55//12 
o mesh25
f 57//12 58//12 54//12 
f 54//12 49//12 57//12 
o mesh26
f 59//12 60//12 50//12 
f 50//12 47//12 59//12 
o mesh27
f 61//14 59//14 56//14 
f 61//14 62//14 60//14 
f 60//14 59//14 61//14 
f 62//14 57//14 60//14 
f 62//14 58//14 57//14 
f 56//14 55//14 61//14 
o mesh28
f 63//15 64//15 56//15 
f 56//15 59//15 63//15 
o mesh29
f 65//15 66//15 60//15 
f 60//15 57//15 65//15 
o mesh30
f 62//16 61//16 67//16 
f 67//16 68//16 62//16 
o mesh31
f 68//17 66//17 65//17 
f 68//17 67//17 63//17 
f 63//17 66//17 68//17 
f 67//17 64//17 63//17 
f 67//17 69//17 64//17 
f 65//17 70//17 68//17 
o mesh32
f 71//16 72//16 64//16 
f 64//16 69//16 71//16 
o mesh33
f 73//16 74//16 70//16 
f 70//16 65//16 73//16 
o mesh34
f 75//16 76//16 66//16 
f 66//16 63//16 75//16 
o mesh35
f 77//18 75//18 72//18 
f 77//18 78//18 76//18 
f 76//18 75//18 77//18 
f 78//18 73//18 76//18 
f 78//18 74//18 73//18 
f 72//18 71//18 77//18 
o mesh36
f 79//19 80//19 72//19 
f 72//19 75//19 79//19 
o mesh37
f 81//19 82//19 76//19 
f 76//19 73//19 81//19 
o mesh38
f 78//20 77//20 83//20 
f 83//20 84//20 78//20 
o mesh39
f 84//21 82//21 81//21 
f 84//21 83//21 79//21 
f 79//21 82//21 84//21 
f 83//21 80//21 79//21 
f 83//21 85//21 80//21 
f 81//21 86//21 84//21 
o mesh40
f 87//20 88//20 80//20 
f 80//20 85//20 87//20 
o mesh41
f 89//20 90//20 86//20 
f 86//20 81//20 89//20 
o mesh42
f 91//20 92//20 82//20 
f 82//20 79//20 91//20 
o mesh43
f 93//22 91//22 88//22 
f 93//22 94//22 92//22 
f 92//22 91//22 93//22 
f 94//22 89//22 92//22 
f 94//22 90//22 89//22 
f 88//22 87//22 93//22 
o mesh44
f 91//23 95//23 96//23 
f 96//23 88//23 91//23 
o mesh45
f 89//23 97//23 98//23 
f 98//23 92//23 89//23 
o mesh46
f 93//24 99//24 100//24 
f 100//24 94//24 93//24 
o mesh47
f 101//25 102//25 103//25 
f 99//25 104//25 105//25 
f 104//25 101//25 106//25 
f 103//25 106//25 101//25 
f 101//25 100//25 97//25 
f 99//25 96//25 95//25 
f 106//25 105//25 104//25 
f 97//25 102//25 101//25 
f 100//25 99//25 98//25 
f 95//25 98//25 99//25 
f 103//25 95//25 106//25 
f 95//25 103//25 98//25 
f 98//25 97//25 100//25 
f 105//25 96//25 99//25 
o mesh48
f 103//24 102//24 107//24 
f 107//24 108//24 103//24 
o mesh49
f 105//24 106//24 109//24 
f 109//24 110//24 105//24 
o mesh50
f 104//26 111//26 112//26 
f 112//26 101//26 104//26 
o mesh51
f 113//27 112//27 107//27 
f 112//27 109//27 108//27 
f 108//27 107//27 112//27 
f 114//27 108//27 109//27 
f 109//27 115//27 114//27 
f 111//27 110//27 109//27 
f 109//27 112//27 111//27 
f 116//27 117//27 110//27 
f 110//27 111//27 116//27 
f 107//27 118//27 113//27 
o mesh52
f 116//26 119//26 120//26 
f 120//26 117//26 116//26 
o mesh53
f 121//26 113//26 118//26 
f 118//26 122//26 121//26 
o mesh54
f 123//26 114//26 115//26 
f 115//26 124//26 123//26 
o mesh55
f 119//28 125//28 126//28 
f 125//28 127//28 128//28 
f 128//28 126//28 125//28 
f 124//28 128//28 127//28 
f 127//28 123//28 124//28 
f 129//28 130//28 127//28 
f 127//28 125//28 129//28 
f 121//28 122//28 130//28 
f 130//28 129//28 121//28 
f 126//28 120//28 119//28 
o mesh56
f 130//29 131//29 132//29 
f 132//29 127//29 130//29 
o mesh57
f 126//29 128//29 133//29 
f 133//29 134//29 126//29 
o mesh58
f 125//30 135//30 136//30 
f 136//30 129//30 125//30 
o mesh59
f 137//31 136//31 131//31 
f 136//31 133//31 132//31 
f 132//31 131//31 136//31 
f 138//31 132//31 133//31 
f 133//31 139//31 138//31 
f 135//31 134//31 133//31 
f 133//31 136//31 135//31 
f 140//31 141//31 134//31 
f 134//31 135//31 140//31 
f 131//31 142//31 137//31 
o mesh60
f 140//30 143//30 144//30 
f 144//30 141//30 140//30 
o mesh61
f 145//30 137//30 142//30 
f 142//30 146//30 145//30 
o mesh62
f 147//30 138//30 139//30 
f 139//30 148//30 147//30 
o mesh63
f 143//32 21//32 1//32 
f 149//32 150//32 143//32 
f 151//32 149//32 4//32 
f 143//32 4//32 149//32 
f 1//32 4//32 143//32 
f 5//32 1//32 21//32 
f 21//32 13//32 5//32 
f 143//32 37//32 23//32 
f 140//32 39//32 37//32 
f 23//32 21//32 143//32 
f 29//32 23//32 37//32 
f 140//32 53//32 39//32 
f 37//32 35//32 29//32 
f 37//32 143//32 140//32 
f 140//32 135//32 53//32 
f 45//32 39//32 53//32 
f 119//32 69//32 55//32 
f 135//32 125//32 119//32 
f 53//32 51//32 45//32 
f 119//32 53//32 135//32 
f 55//32 53//32 119//32 
f 61//32 55//32 69//32 
f 69//32 67//32 61//32 
f 119//32 85//32 71//32 
f 71//32 69//32 119//32 
f 77//32 71//32 85//32 
f 104//32 87//32 116//32 
f 116//32 87//32 85//32 
f 85//32 83//32 77//32 
f 85//32 119//32 116//32 
f 116//32 111//32 104//32 
f 99//32 93//32 87//32 
f 87//32 104//32 99//32 
f 4//32 152//32 151//32 
o mesh64
f 137//33 38//33 42//33 
f 137//33 26//33 38//33 
f 42//33 121//33 137//33 
f 36//33 38//33 26//33 
f 26//33 30//33 36//33 
f 137//33 10//33 22//33 
f 100//33 113//33 90//33 
f 113//33 74//33 86//33 
f 22//33 26//33 137//33 
f 14//33 22//33 10//33 
f 86//33 90//33 113//33 
f 84//33 86//33 74//33 
f 10//33 7//33 14//33 
f 145//33 11//33 10//33 
f 74//33 78//33 84//33 
f 113//33 58//33 70//33 
f 10//33 137//33 145//33 
f 153//33 154//33 11//33 
f 70//33 74//33 113//33 
f 68//33 70//33 58//33 
f 155//33 153//33 145//33 
f 11//33 145//33 153//33 
f 58//33 62//33 68//33 
f 121//33 54//33 58//33 
f 42//33 46//33 121//33 
f 136//33 137//33 121//33 
f 58//33 113//33 121//33 
f 46//33 52//33 54//33 
f 121//33 129//33 136//33 
f 54//33 121//33 46//33 
f 90//33 94//33 100//33 
f 101//33 112//33 113//33 
f 113//33 100//33 101//33 
f 145//33 156//33 155//33 
o mesh65
f 156//34 150//34 149//34 
f 149//34 155//34 156//34 
o mesh66
f 153//35 151//35 152//35 
f 152//35 154//35 153//35 
o mesh67
f 141//36 32//36 40//36 
f 141//36 24//36 32//36 
f 141//36 144//36 16//36 
f 16//36 24//36 141//36 
f 117//36 80//36 88//36 
f 144//36 2//36 16//36 
f 117//36 72//36 80//36 
f 117//36 120//36 64//36 
f 144//36 3//36 2//36 
f 64//36 72//36 117//36 
f 157//36 158//36 144//36 
f 144//36 158//36 3//36 
f 120//36 56//36 64//36 
f 40//36 120//36 141//36 
f 134//36 141//36 120//36 
f 120//36 48//36 56//36 
f 120//36 126//36 134//36 
f 120//36 40//36 48//36 
f 88//36 96//36 117//36 
f 105//36 110//36 117//36 
f 117//36 96//36 105//36 
f 144//36 159//36 157//36 
o mesh68
f 124//37 59//37 47//37 
f 124//37 63//37 59//37 
f 124//37 115//37 75//37 
f 75//37 63//37 124//37 
f 148//37 6//37 18//37 
f 115//37 79//37 75//37 
f 148//37 15//37 6//37 
f 148//37 139//37 27//37 
f 115//37 91//37 79//37 
f 27//37 15//37 148//37 
f 106//37 95//37 115//37 
f 115//37 95//37 91//37 
f 139//37 31//37 27//37 
f 47//37 139//37 124//37 
f 128//37 124//37 139//37 
f 139//37 43//37 31//37 
f 139//37 133//37 128//37 
f 139//37 47//37 43//37 
f 18//37 160//37 148//37 
f 161//37 162//37 148//37 
f 148//37 160//37 161//37 
f 115//37 109//37 106//37 
o mesh69
f 157//38 159//38 162//38 
f 162//38 161//38 157//38 
o mesh70
f 18//39 3//39 158//39 
f 158//39 160//39 18//39 
o mesh71
f 143//40 150//40 159//40 
f 150//40 163//40 162//40 
f 162//40 159//40 150//40 
f 148//40 162//40 163//40 
f 163//40 147//40 148//40 
f 156//40 164//40 163//40 
f 163//40 150//40 156//40 
f 145//40 146//40 164//40 
f 164//40 156//40 145//40 
f 159//40 144//40 143//40 
o mesh72
f 165//41 163//41 164//41 
f 164//41 166//41 165//41 
o mesh73
f 138//42 34//42 44//42 
f 138//42 28//42 34//42 
f 138//42 147//42 20//42 
f 20//42 28//42 138//42 
f 114//42 82//42 92//42 
f 147//42 8//42 20//42 
f 114//42 76//42 82//42 
f 114//42 123//42 66//42 
f 147//42 17//42 8//42 
f 66//42 76//42 114//42 
f 165//42 167//42 147//42 
f 147//42 167//42 17//42 
f 123//42 60//42 66//42 
f 44//42 123//42 138//42 
f 132//42 138//42 123//42 
f 123//42 50//42 60//42 
f 123//42 127//42 132//42 
f 123//42 44//42 50//42 
f 92//42 98//42 114//42 
f 103//42 108//42 114//42 
f 114//42 98//42 103//42 
f 147//42 163//42 165//42 
o mesh74
f 122//43 57//43 49//43 
f 122//43 65//43 57//43 
f 122//43 118//43 73//43 
f 73//43 65//43 122//43 
f 146//43 9//43 12//43 
f 118//43 81//43 73//43 
f 146//43 19//43 9//43 
f 146//43 142//43 25//43 
f 118//43 89//43 81//43 
f 25//43 19//43 146//43 
f 102//43 97//43 118//43 
f 118//43 97//43 89//43 
f 142//43 33//43 25//43 
f 49//43 142//43 122//43 
f 130//43 122//43 142//43 
f 142//43 41//43 33//43 
f 142//43 131//43 130//43 
f 142//43 49//43 41//43 
f 12//43 168//43 146//43 
f 166//43 164//43 146//43 
f 146//43 168//43 166//43 
f 118//43 107//43 102//43 
o mesh75
f 149//44 151//44 158//44 
f 151//44 167//44 160//44 
f 160//44 158//44 151//44 
f 161//44 160//44 167//44 
f 153//44 168//44 167//44 
f 153//44 155//44 166//44 
f 167//44 165//44 161//44 
f 149//44 157//44 161//44 
f 166//44 168//44 153//44 
f 155//44 149//44 165//44 
f 161//44 165//44 149//44 
f 165//44 166//44 155//44 
f 167//44 151//44 153//44 
f 158//44 157//44 149//44 
o mesh76
f 154//45 17//45 12//45 
f 154//45 152//45 18//45 
f 18//45 17//45 154//45 
f 152//45 3//45 18//45 
f 152//45 4//45 3//45 
f 12//45 11//45 154//45 
o mesh77
f 12//46 17//46 167//46 
f 167//46 168//46 12//46 
